<svg width="41" height="41" viewBox="0 0 41 41" fill="none" xmlns="http://www.w3.org/2000/svg">
<g clip-path="url(#clip0_26_301)">
<path d="M39.0701 22.2651C39.1168 21.8213 39.3401 21.4309 39.7507 21.1265C40.6947 20.428 41.1845 19.3139 41.0615 18.145C40.9389 16.9773 40.2276 15.9898 39.1073 15.4792C38.7011 15.2942 38.4015 14.9589 38.2636 14.5344C38.1256 14.1097 38.1709 13.6619 38.4238 13.2138C39.0033 12.1905 38.9975 10.9717 38.4081 9.95315C37.8195 8.93573 36.7659 8.32411 35.5609 8.31681C35.1139 8.31425 34.7034 8.12997 34.4037 7.79715C34.1038 7.46507 33.9633 7.03628 34.0118 6.54253C34.1271 5.36892 33.6264 4.25553 32.6714 3.56399C31.7164 2.87245 30.503 2.744 29.4214 3.22096C29.0116 3.40196 28.5594 3.40123 28.1503 3.21877C27.7398 3.03594 27.4365 2.70057 27.2898 2.25609C26.9202 1.1343 26.0108 0.319053 24.8558 0.0738214C23.7015 -0.170315 22.5378 0.205925 21.7448 1.08066V1.08175C21.1412 1.74811 20.0197 1.74556 19.4162 1.08066C18.6228 0.20483 17.4591 -0.17214 16.3062 0.0738214C15.1512 0.318323 14.2415 1.1343 13.8656 2.27361C13.7251 2.70057 13.4219 3.03594 13.0113 3.21877C12.6026 3.4005 12.1501 3.40196 11.7355 3.21877C10.6575 2.74473 9.44414 2.87245 8.49022 3.56399C7.5352 4.25553 7.03452 5.36892 7.15458 6.58997C7.19838 7.03628 7.05788 7.46507 6.75791 7.79715C6.45867 8.12997 6.04776 8.31425 5.57153 8.31681C4.39609 8.32411 3.34255 8.93646 2.75355 9.95315C2.16456 10.9717 2.15836 12.1905 2.77107 13.274C2.99076 13.6619 3.03601 14.1097 2.89807 14.5344C2.76012 14.9589 2.46052 15.2942 2.00253 15.5026C0.934025 15.9898 0.22278 16.9773 0.100164 18.145C-0.0228163 19.3139 0.466917 20.428 1.46353 21.1656C1.82153 21.4309 2.04486 21.8213 2.09158 22.2651C2.13829 22.7096 2.00144 23.1383 1.65987 23.5244C0.880745 24.4043 0.633324 25.598 0.997887 26.7157C1.36208 27.8328 2.26419 28.6502 3.45349 28.9119C3.88957 29.0078 4.25268 29.2739 4.47601 29.6603C4.69971 30.0483 4.74861 30.496 4.59535 30.9788C4.24027 32.1024 4.49973 33.2954 5.28944 34.1694C6.07805 35.0427 7.23596 35.4233 8.40337 35.1788C8.84165 35.0879 9.28284 35.1821 9.64522 35.4455C10.0076 35.7094 10.2346 36.0995 10.2875 36.5783C10.4174 37.7519 11.1385 38.7379 12.2165 39.2167C13.2941 39.6948 14.5086 39.5696 15.4662 38.8788C15.8289 38.616 16.2712 38.5219 16.7113 38.616C17.1503 38.7094 17.5171 38.9748 17.7466 39.3692C18.3407 40.3903 19.3997 41.0001 20.581 41.0001C21.7619 41.0001 22.8209 40.3903 23.4187 39.3627C23.6449 38.9748 24.0113 38.7094 24.4503 38.616C24.889 38.5226 25.3309 38.616 25.6958 38.8788C26.6519 39.5696 27.8672 39.6948 28.9452 39.2167C30.0232 38.7379 30.7442 37.7519 30.8778 36.5458C30.9271 36.0995 31.1541 35.7094 31.5164 35.4455C31.8788 35.1821 32.3193 35.0854 32.7729 35.1821C33.9264 35.4182 35.084 35.0427 35.8729 34.1687C36.6626 33.2947 36.9214 32.1024 36.5477 30.9223C36.413 30.496 36.4619 30.0483 36.6856 29.6603C36.909 29.2739 37.2721 29.0078 37.7505 28.902C38.8975 28.6502 39.7996 27.8328 40.1638 26.7157C40.5283 25.598 40.2809 24.4043 39.4565 23.4726C39.1602 23.1383 39.0234 22.7096 39.0701 22.2651ZM38.6822 19.7927C37.945 20.3383 37.4673 21.1739 37.371 22.0863C37.275 22.9989 37.5684 23.9164 38.2223 24.6554C38.5957 25.0783 38.7143 25.6498 38.5398 26.1862C38.365 26.7216 37.933 27.1128 37.341 27.2438C36.4441 27.4405 35.666 28.0105 35.2066 28.806C34.7464 29.6019 34.6417 30.561 34.9373 31.4945C35.1077 32.0335 34.9832 32.6046 34.6052 33.0242C34.2271 33.4421 33.6721 33.6249 33.1053 33.5056C32.204 33.3202 31.2577 33.5224 30.5125 34.0636C29.767 34.6047 29.2809 35.4415 29.1758 36.3914C29.1141 36.9538 28.7685 37.426 28.2514 37.6563C27.7354 37.884 27.153 37.8238 26.6957 37.4942C25.9469 36.9538 25.0014 36.752 24.096 36.9454C23.1924 37.1366 22.4075 37.7044 21.9385 38.5102C21.6535 38.9999 21.1463 39.2919 20.581 39.2919C20.0157 39.2919 19.5081 38.9999 19.2195 38.5036C18.7542 37.7044 17.9692 37.1366 17.0657 36.9454C16.8409 36.8972 16.6135 36.8739 16.3873 36.8739C15.7034 36.8739 15.0286 37.0881 14.4666 37.4942C14.0083 37.8245 13.4251 37.8847 12.9102 37.6563C12.3931 37.426 12.0475 36.9538 11.9822 36.3575C11.8808 35.4415 11.395 34.6047 10.6491 34.0636C9.90395 33.5213 8.96025 33.3195 8.04099 33.5089C7.48995 33.6264 6.9349 33.4421 6.55683 33.0242C6.1784 32.6057 6.05396 32.0335 6.24263 31.4379C6.51997 30.561 6.41524 29.6019 5.95507 28.806C5.49562 28.0105 4.71723 27.4405 3.77827 27.2339C3.22869 27.1128 2.79662 26.7216 2.62218 26.1862C2.44738 25.6498 2.56635 25.0783 2.98565 24.6039C3.59325 23.9164 3.88666 22.9989 3.79068 22.0863C3.69434 21.1739 3.21665 20.3383 2.42694 19.7533C1.9748 19.419 1.73979 18.8844 1.7989 18.3246C1.85766 17.7641 2.19886 17.2911 2.76158 17.0342C3.5969 16.6539 4.23881 15.9358 4.52236 15.0632C4.80664 14.19 4.70957 13.2306 4.22421 12.373C3.9465 11.8818 3.94942 11.2979 4.23188 10.8093C4.51433 10.3221 5.01903 10.0283 5.61057 10.025C6.53019 10.0199 7.41113 9.62471 8.02713 8.94084C8.64349 8.2566 8.94492 7.33917 8.85004 6.37576C8.79457 5.81268 9.03469 5.27879 9.49231 4.94707C9.94884 4.61571 10.5298 4.55477 11.0513 4.78431C11.8965 5.15617 12.8642 5.15471 13.7061 4.7792C14.5495 4.40405 15.1987 3.68588 15.4943 2.78998C15.6709 2.2528 16.1066 1.86233 16.6599 1.74556C17.2124 1.62476 17.7707 1.80723 18.151 2.22762C18.7713 2.91332 19.6566 3.30635 20.581 3.30635C21.505 3.30635 22.3903 2.91332 23.0107 2.22762L23.0118 2.2269C23.3913 1.80796 23.9453 1.62805 24.5014 1.74483C25.0543 1.86233 25.4904 2.2528 25.6739 2.80895C25.9626 3.68588 26.6122 4.40405 27.4555 4.7792C28.2978 5.15471 29.2652 5.15727 30.1151 4.78175C30.6315 4.55331 31.2125 4.61644 31.6693 4.94707C32.127 5.27879 32.3671 5.81268 32.3072 6.4232C32.2164 7.33917 32.5182 8.2566 33.1345 8.94084C33.7505 9.62471 34.6315 10.0199 35.5792 10.025C36.143 10.0283 36.6473 10.3221 36.9298 10.8093C37.2122 11.2972 37.2151 11.8818 36.9042 12.4314C36.4517 13.2306 36.355 14.19 36.6393 15.0632C36.9228 15.9358 37.5648 16.6539 38.4508 17.0576C38.9632 17.2911 39.304 17.7641 39.3627 18.3246C39.4219 18.8844 39.1869 19.419 38.6822 19.7927Z" fill="black"/>
<path d="M20.581 5.98047C12.5741 5.98047 6.06055 12.4941 6.06055 20.5006C6.06055 28.5075 12.5741 35.0211 20.581 35.0211C28.5879 35.0211 35.1015 28.5075 35.1015 20.5006C35.1015 12.4941 28.5879 5.98047 20.581 5.98047ZM20.581 33.3128C13.5164 33.3128 7.76914 27.5656 7.76914 20.5006C7.76914 13.4356 13.5164 7.6887 20.581 7.6887C27.6457 7.6887 33.3933 13.4356 33.3933 20.5006C33.3933 27.5656 27.6457 33.3128 20.581 33.3128Z" fill="black"/>
<path d="M19.1535 15.6535C19.1535 13.7694 17.6208 12.2371 15.737 12.2371C13.8533 12.2371 12.3206 13.7694 12.3206 15.6535C12.3206 17.5376 13.8533 19.07 15.737 19.07C17.6208 19.07 19.1535 17.5376 19.1535 15.6535ZM14.0288 15.6535C14.0288 14.7116 14.7948 13.9453 15.737 13.9453C16.6793 13.9453 17.4452 14.7116 17.4452 15.6535C17.4452 16.5954 16.6793 17.3617 15.737 17.3617C14.7948 17.3617 14.0288 16.5954 14.0288 15.6535Z" fill="black"/>
<path d="M25.4248 21.9312C23.541 21.9312 22.0083 23.4635 22.0083 25.348C22.0083 27.2321 23.541 28.7644 25.4248 28.7644C27.3085 28.7644 28.8416 27.2321 28.8416 25.348C28.8416 23.4635 27.3085 21.9312 25.4248 21.9312ZM25.4248 27.0562C24.4825 27.0562 23.7165 26.2895 23.7165 25.348C23.7165 24.4061 24.4825 23.6394 25.4248 23.6394C26.367 23.6394 27.133 24.4061 27.133 25.348C27.133 26.2895 26.367 27.0562 25.4248 27.0562Z" fill="black"/>
<path d="M26.2019 12.6266C25.8176 12.3515 25.2849 12.4405 25.0104 12.8251L14.7611 27.1836C14.487 27.5675 14.5761 28.1014 14.96 28.3747C15.1103 28.4824 15.2836 28.5342 15.4552 28.5342C15.7219 28.5342 15.9847 28.4097 16.1514 28.1762L26.4012 13.8177C26.6749 13.4342 26.5858 12.9003 26.2019 12.6266Z" fill="black"/>
</g>
<defs>
<clipPath id="clip0_26_301">
<rect width="41" height="41" fill="white"/>
</clipPath>
</defs>
</svg>
