<svg width="45" height="41" viewBox="0 0 45 41" fill="none" xmlns="http://www.w3.org/2000/svg">
<path d="M11.743 27.203C11.0998 26.6947 10.2936 26.4148 9.47304 26.4148C8.35787 26.4148 7.3194 26.9103 6.62386 27.7745C6.01567 28.5309 5.7403 29.4773 5.84885 30.4391C5.95752 31.403 6.43834 32.2663 7.20256 32.8703C7.84577 33.3787 8.65165 33.6586 9.47207 33.6586C10.5881 33.6586 11.6267 33.1622 12.3217 32.2972C12.9293 31.5419 13.2044 30.5967 13.0963 29.6353C12.9879 28.6714 12.5073 27.8075 11.743 27.203ZM11.0268 31.2562C10.6486 31.7272 10.0818 31.9974 9.47207 31.9974C9.01756 31.9974 8.58894 31.8486 8.23286 31.5671C7.81877 31.2399 7.5585 30.7732 7.49966 30.2529C7.44123 29.7347 7.58992 29.2241 7.91817 28.816C8.29654 28.3458 8.86334 28.0761 9.47304 28.0761C9.92797 28.0761 10.3567 28.225 10.7127 28.5063C11.1266 28.8336 11.3868 29.3005 11.4453 29.8211C11.5036 30.3389 11.3552 30.8483 11.0268 31.2562Z" fill="black"/>
<path d="M26.3501 18.6951C26.8981 18.6951 27.4279 18.575 27.9262 18.3376C28.8069 17.9162 29.4686 17.179 29.7888 16.2616C30.1073 15.3501 30.05 14.3692 29.6278 13.5005C29.0237 12.2553 27.7337 11.4507 26.3414 11.4507C25.7923 11.4507 25.2614 11.5711 24.7633 11.8088C23.8827 12.2289 23.2208 12.9655 22.9001 13.8832C22.581 14.7954 22.6381 15.7764 23.0611 16.6455C23.667 17.8906 24.958 18.6951 26.3501 18.6951ZM24.4681 14.4315C24.6417 13.9352 25.0005 13.5362 25.4785 13.3082C25.7515 13.1781 26.0416 13.112 26.3412 13.112C27.1014 13.112 27.8047 13.5491 28.1331 14.2262C28.3609 14.6947 28.3917 15.2229 28.2203 15.7138C28.0469 16.2104 27.6876 16.61 27.2103 16.8384C26.9382 16.9681 26.6487 17.0337 26.35 17.0337C25.5891 17.0337 24.8844 16.596 24.5546 15.9186C24.3272 15.4508 24.2964 14.9227 24.4681 14.4315Z" fill="black"/>
<path d="M17.3105 12.8247C17.5777 12.885 17.8511 12.9156 18.1232 12.9156C19.8332 12.9156 21.2942 11.759 21.6763 10.1014C21.8911 9.16155 21.7259 8.19396 21.2117 7.37658C20.6932 6.55284 19.8829 5.98023 18.9307 5.76453C18.6624 5.70362 18.3879 5.67261 18.1146 5.67261C16.4056 5.67261 14.9461 6.83042 14.5653 8.48774C14.3487 9.42694 14.5128 10.3947 15.0271 11.2126C15.546 12.0375 16.3572 12.6101 17.3105 12.8247ZM16.1844 8.86043C16.3908 7.96179 17.1846 7.33408 18.1146 7.33408C18.264 7.33408 18.4147 7.35111 18.563 7.38475C19.0824 7.50243 19.5237 7.81379 19.8055 8.26152C20.0833 8.70274 20.1724 9.22468 20.0569 9.72972C19.8533 10.6131 19.0399 11.2543 18.123 11.2543C17.9741 11.2543 17.8238 11.2374 17.676 11.204C17.1564 11.087 16.7152 10.7759 16.4334 10.3282C16.1563 9.88727 16.0678 9.36617 16.1844 8.86043Z" fill="black"/>
<path d="M10.7095 14.8969C11.4728 14.292 11.9528 13.428 12.0614 12.464C12.1695 11.5029 11.895 10.5576 11.2871 9.801C10.5904 8.93725 9.5511 8.44189 8.43593 8.44189C7.6162 8.44189 6.81087 8.721 6.16751 9.2284C5.40399 9.83146 4.92373 10.6941 4.81477 11.6574C4.70596 12.6197 4.98118 13.5667 5.5902 14.3245C6.2863 15.1893 7.32574 15.6853 8.44216 15.6853C9.26258 15.6852 10.0679 15.4052 10.7095 14.8969ZM6.88493 13.283C6.55599 12.8738 6.40716 12.3626 6.46586 11.8438C6.52456 11.3242 6.78456 10.8582 7.19713 10.5321C7.55307 10.2514 7.98155 10.103 8.43607 10.103C9.04633 10.103 9.61437 10.3729 9.99301 10.8424C10.3204 11.2502 10.4688 11.7601 10.4106 12.2781C10.352 12.7992 10.0917 13.2668 9.67791 13.5947C9.32363 13.8753 8.89626 14.0237 8.4423 14.0237C7.83134 14.0238 7.26372 13.7536 6.88493 13.283Z" fill="black"/>
<path d="M44.6823 6.76841C44.5387 6.6236 44.2826 6.45096 43.8785 6.45096C43.4046 6.45096 42.1457 6.45096 34.5002 12.9567C34.3466 13.0874 34.1915 13.2199 34.0359 13.3534C32.6699 9.78996 30.2698 6.61308 27.1771 4.31518C23.631 1.68044 19.4084 0.286996 14.9663 0.285889C14.9649 0.285889 14.9639 0.285889 14.9628 0.285889C11.9649 0.285889 8.32079 1.33336 5.45208 3.02003C1.93559 5.08728 -0.000692037 7.85202 1.85538e-07 10.8046C0.00110774 14.3693 2.0116 15.8603 3.62711 17.0583C4.94441 18.0353 5.98482 18.8069 5.98537 20.4978C5.98579 22.1886 4.94593 22.9595 3.62932 23.9355C2.01437 25.1328 0.00429197 26.623 0.00539952 30.1881C0.00623019 33.1403 1.94376 35.9057 5.46094 37.9748C8.33173 39.6635 11.9778 40.7132 14.9762 40.714C14.9783 40.714 14.9801 40.714 14.982 40.714C20.4236 40.714 25.539 38.6137 29.3864 34.7997C33.1847 31.0344 35.2973 26.0436 35.3528 20.7253C36.6425 19.2576 37.892 17.7988 39.0326 16.4242C40.9841 14.0726 42.4847 12.1322 43.4928 10.657C44.8282 8.70317 45.413 7.5048 44.6823 6.76841ZM28.2169 33.6199C24.6826 37.1236 19.9829 39.0527 14.9822 39.0527C14.9807 39.0527 14.9784 39.0527 14.9769 39.0527C9.61815 39.0512 1.66826 35.3281 1.66673 30.1875C1.6659 27.4592 3.10019 26.3958 4.61879 25.27C6.03826 24.2175 7.64712 23.0247 7.64657 20.4973C7.64574 17.9702 6.03646 16.7767 4.61657 15.7238C3.09728 14.597 1.66216 13.5328 1.66133 10.8042C1.66064 7.64753 4.56355 5.46953 6.2941 4.4521C8.88274 2.93018 12.285 1.94708 14.9628 1.94708C14.9638 1.94708 14.9649 1.94708 14.9657 1.94708C19.0486 1.94819 22.9286 3.22825 26.1864 5.64854C29.1909 7.88095 31.4844 11.0148 32.6924 14.5158C29.0894 17.6618 25.1878 21.289 22.2821 24.2041C17.4561 24.8288 16.7986 28.0451 16.3179 30.4079C15.9087 32.4198 15.643 33.3925 14.0901 33.5171C13.7074 33.5479 13.3958 33.8367 13.3361 34.2159C13.2763 34.5949 13.4841 34.9657 13.8388 35.1126C13.9386 35.1538 16.3137 36.1243 19.0887 36.1245C19.0891 36.1245 19.0894 36.1245 19.0897 36.1245C21.0235 36.1245 22.6823 35.6557 24.02 34.7313C25.6683 33.5922 26.786 31.7862 27.3476 29.3642C29.2461 27.4434 31.4154 25.1273 33.5605 22.7414C33.0668 26.8491 31.2131 30.6497 28.2169 33.6199ZM25.6787 29.2069C24.7985 32.6952 22.5836 34.4634 19.0896 34.4633C19.0896 34.4633 19.089 34.4633 19.0887 34.4633C18.1674 34.4633 17.2851 34.3376 16.5433 34.1808C17.4293 33.2772 17.7061 31.9174 17.9457 30.7394C18.4022 28.4955 18.8339 26.3719 22.3653 25.8674L25.6787 29.2069ZM37.1496 16.0879C33.8567 20.011 29.8709 24.4166 26.5898 27.7663L26.0818 27.2543L23.8406 24.9953C26.8155 22.034 30.6318 18.503 34.1925 15.4127C34.6075 15.0525 35.02 14.6968 35.4264 14.3502C39.5586 10.8261 41.7241 9.29239 42.8288 8.62495C42.1691 9.73625 40.6495 11.9183 37.1496 16.0879Z" fill="black"/>
</svg>
