<svg width="40" height="40" viewBox="0 0 40 40" fill="none" xmlns="http://www.w3.org/2000/svg">
<path d="M20 39.0935C9.22562 39.0935 0.499999 30.4492 0.499999 19.7967C0.5 9.14425 9.22562 0.499999 20 0.499999C30.7744 0.5 39.5 9.14425 39.5 19.7967C39.5 30.4492 30.7744 39.0935 20 39.0935Z" stroke="#F9A82F"/>
<path d="M20 35.134C11.4348 35.134 4.5 28.2624 4.5 19.7966C4.5 11.3308 11.4348 4.45923 20 4.45923C28.5652 4.45923 35.5 11.3308 35.5 19.7966C35.5 28.2624 28.5652 35.134 20 35.134Z" stroke="#F9A82F"/>
<path d="M39 19.7967L32.1389 19.7967L32.1389 22.7662L32.1389 16.8271M0.999999 19.7967L7.86111 19.7967M7.86111 22.7662L7.86111 16.8271" stroke="#F9A82F"/>
<ellipse cx="25" cy="19.7967" rx="2.96951" ry="3" transform="rotate(90 25 19.7967)" fill="#F9A82F"/>
<ellipse cx="15" cy="19.7967" rx="2.96951" ry="3" transform="rotate(90 15 19.7967)" fill="#F9A82F"/>
</svg>
