<svg width="40" height="40" viewBox="0 0 40 40" fill="none" xmlns="http://www.w3.org/2000/svg">
<path d="M27.0827 23.8075C26.9969 23.5393 27.0918 23.247 27.3189 23.0806L32.3957 19.3559C33.204 18.7629 33.5262 17.7637 33.2164 16.8104C32.9067 15.8569 32.0587 15.2379 31.0563 15.2333L24.7597 15.2041C24.478 15.2027 24.2295 15.0223 24.1413 14.7549L22.1678 8.77532C21.8536 7.82336 21.003 7.20839 20.0005 7.20825C18.9981 7.20825 18.1473 7.82336 17.8331 8.77519L16.9436 11.4694C16.8026 11.8962 17.0343 12.3566 17.4613 12.4974C17.8882 12.6387 18.3484 12.4067 18.4895 11.9797L19.379 9.28556C19.5166 8.86866 19.8894 8.83624 20.0005 8.83624C20.1115 8.83624 20.4843 8.86866 20.6219 9.28556L22.5954 15.2653C22.9034 16.198 23.77 16.8276 24.7521 16.8322L31.0487 16.8614C31.4877 16.8634 31.6338 17.208 31.668 17.3136C31.7024 17.4191 31.7867 17.7836 31.4328 18.0433L26.3558 21.768C25.5639 22.3491 25.2329 23.3679 25.532 24.3035L27.4507 30.3029C27.5845 30.7211 27.3019 30.9665 27.2121 31.0316C27.1223 31.0969 26.8017 31.29 26.4453 31.0334L21.3339 27.355C20.5364 26.7812 19.4649 26.7812 18.6675 27.355L13.5551 31.0341C13.1987 31.2905 12.878 31.0976 12.7883 31.0325C12.6985 30.9672 12.4159 30.7219 12.5495 30.3038L14.4677 24.3035C14.7668 23.368 14.4357 22.3492 13.6439 21.7681L8.56719 18.0434C8.21324 17.7838 8.29763 17.4191 8.33195 17.3137C8.36627 17.2082 8.51238 16.8636 8.95126 16.8615L15.2483 16.8324C15.6978 16.8302 16.0605 16.4642 16.0585 16.0146C16.0563 15.5663 15.6923 15.2044 15.2445 15.2044C15.2433 15.2044 15.2419 15.2044 15.2407 15.2044L8.94366 15.2335C7.94123 15.2382 7.09332 15.8572 6.7836 16.8107C6.47388 17.7641 6.79595 18.7633 7.6041 19.3563L12.6808 23.081C12.9078 23.2476 13.0028 23.5397 12.917 23.8079L10.999 29.8082C10.6937 30.763 11.0206 31.7607 11.8316 32.3498C12.2386 32.6454 12.7055 32.7933 13.1728 32.7933C13.6366 32.7933 14.1007 32.6474 14.5062 32.3557L19.6185 28.6766C19.8471 28.5121 20.1544 28.5121 20.383 28.6766L25.4944 32.3551C26.3082 32.9406 27.3579 32.9384 28.1691 32.3491C28.9802 31.7599 29.3069 30.7622 29.0015 29.8073L27.0827 23.8075Z" fill="#F9A82F"/>
<path d="M19.9999 0C8.97196 0 0 8.97196 0 19.9999C0 31.0279 8.97196 39.9999 19.9999 39.9999C20.4494 39.9999 20.8139 39.6353 20.8139 39.1859C20.8139 38.7364 20.4494 38.3719 19.9999 38.3719C9.86966 38.372 1.62799 30.1303 1.62799 19.9999C1.62799 9.86953 9.86966 1.62799 19.9999 1.62799C30.1302 1.62799 38.3719 9.86966 38.3719 19.9999C38.3719 26.3057 35.1946 32.0988 29.8724 35.4967C29.4935 35.7386 29.3824 36.2419 29.6243 36.6208C29.8662 36.9998 30.3694 37.1109 30.7484 36.869C36.5413 33.1705 39.9999 26.8643 39.9999 20.0001C40 8.97196 31.028 0 19.9999 0Z" fill="#F9A82F"/>
</svg>
