<svg width="41" height="41" viewBox="0 0 41 41" fill="none" xmlns="http://www.w3.org/2000/svg">
<g clip-path="url(#clip0_26_293)">
<path d="M0.129806 3.76094L2.86418 8.54582C2.95641 8.7075 3.11079 8.82448 3.29132 8.86976L5.84235 9.50751L14.5918 18.257L15.5586 17.2905L6.67217 8.40437C6.58471 8.31664 6.47505 8.25449 6.35498 8.22441L3.90377 7.60942L1.57573 3.53317L3.57167 1.53723L7.64961 3.86752L8.26487 6.31872C8.29468 6.43908 8.35711 6.54903 8.44456 6.63648L17.331 15.5229L18.2975 14.5561L9.54798 5.80666L8.91022 3.25704C8.86495 3.07623 8.74797 2.92157 8.58628 2.82905L3.80113 0.0949613C3.53427 -0.0568857 3.19852 -0.011894 2.98088 0.20491L0.246785 2.93928C0.0268875 3.15552 -0.0209162 3.49184 0.129806 3.76094Z" fill="black"/>
<path d="M28.5489 13.4718L13.5107 28.5103L12.5439 27.5436L27.5824 12.5054L28.5489 13.4718Z" fill="black"/>
<path d="M10.8787 29.0425C10.755 28.8366 10.5329 28.7109 10.2927 28.7109H6.19144C5.95157 28.7109 5.72915 28.8366 5.6057 29.0425L3.55492 32.4602C3.42473 32.6767 3.42473 32.9475 3.55492 33.1643L5.6057 36.582C5.72915 36.7875 5.95157 36.9135 6.19144 36.9135H10.2927C10.5329 36.9135 10.755 36.7875 10.8787 36.582L12.9292 33.1643C13.0594 32.9475 13.0594 32.6767 12.9292 32.4602L10.8787 29.0425ZM9.90607 35.5463H6.57837L4.93785 32.8122L6.57837 30.0778H9.90607L11.5466 32.8122L9.90607 35.5463Z" fill="black"/>
<path d="M32.8513 16.4068C37.366 16.422 41.0384 12.7743 41.0536 8.25962C41.0558 7.57237 40.9715 6.88794 40.8025 6.22178C40.7114 5.85538 40.3405 5.63239 39.9741 5.72349C39.8537 5.75358 39.7441 5.81573 39.6563 5.90318L35.4012 10.1555L32.0252 9.03039L30.8992 5.65516L35.1543 1.39923C35.4212 1.13209 35.4209 0.699324 35.1538 0.432467C35.0658 0.344452 34.955 0.282026 34.8338 0.252219C30.4555 -0.856546 26.0078 1.79375 24.899 6.17172C24.7306 6.83591 24.6465 7.51866 24.6488 8.20394C24.6504 8.74216 24.7058 9.27868 24.815 9.80565L9.84479 24.7755C9.31783 24.6667 8.7813 24.6113 8.24337 24.6093C3.71298 24.6093 0.0405273 28.2818 0.0405273 32.8122C0.0405273 37.3423 3.71298 41.0147 8.24337 41.0147C12.7735 41.0147 16.4459 37.3423 16.4459 32.8122C16.4442 32.274 16.3886 31.7374 16.2797 31.2105L19.8636 27.6266L21.431 29.194C21.6981 29.4608 22.1306 29.4608 22.3978 29.194L22.7394 28.8521C23.0392 28.5543 23.5237 28.5543 23.8234 28.8521C24.1229 29.1507 24.1235 29.6355 23.8249 29.9349C23.8246 29.9352 23.824 29.9358 23.8234 29.9364L23.4818 30.278C23.2149 30.5449 23.2149 30.9776 23.4818 31.2445L31.636 39.3987C33.7807 41.5631 37.2737 41.5788 39.4381 39.4341C41.6022 37.2894 41.618 33.7961 39.4733 31.632C39.4617 31.6202 39.4499 31.6084 39.4381 31.5965L31.2839 23.4426C31.0171 23.1758 30.5843 23.1758 30.3174 23.4426L29.9758 23.7843C29.6757 24.0824 29.1915 24.0824 28.8915 23.7843C28.5923 23.4857 28.5914 23.0009 28.8901 22.7017C28.8906 22.7011 28.8912 22.7008 28.8915 22.7003L29.2334 22.3583C29.5003 22.0915 29.5003 21.6587 29.2334 21.3919L27.666 19.8245L31.2499 16.2406C31.7769 16.3494 32.3134 16.4051 32.8513 16.4068ZM35.537 39.6478C35.0405 39.647 34.5481 39.5573 34.0833 39.3826L39.4218 34.0438C40.2274 36.1868 39.1434 38.577 37.0004 39.3826C36.5328 39.5584 36.037 39.6484 35.537 39.6478ZM27.7931 21.882C27.0361 22.7849 27.1548 24.1307 28.0577 24.8874C28.8513 25.5525 30.0078 25.5519 30.8005 24.8855L38.4716 32.5633C38.5549 32.6468 38.6328 32.7348 38.7081 32.8243L32.8637 38.6687C32.774 38.5936 32.686 38.5157 32.6025 38.4322L24.9255 30.7546C25.6824 29.8517 25.5638 28.5059 24.6609 27.7492C23.8673 27.0839 22.7105 27.0847 21.9178 27.7509L20.8242 26.6573L26.6993 20.7909L27.7931 21.882ZM30.5534 15.007L15.0467 30.5106C14.8766 30.6804 14.8082 30.927 14.8662 31.1601C15.8039 34.843 13.5785 38.5888 9.89541 39.5263C6.21255 40.4641 2.46671 38.2387 1.52891 34.5556C0.591395 30.8727 2.8168 27.1269 6.49994 26.1891C7.61404 25.9057 8.7813 25.9057 9.89541 26.1891C10.1285 26.2462 10.3746 26.1779 10.545 26.0089L26.048 10.505C26.2178 10.3351 26.2862 10.0885 26.2277 9.8557C25.2964 6.21587 27.492 2.51024 31.1318 1.57863C31.8196 1.40288 32.531 1.3354 33.2397 1.37954L29.6338 4.98675C29.4508 5.16953 29.3867 5.44033 29.4685 5.68581L30.8354 9.78737C30.9037 9.99124 31.064 10.1515 31.2682 10.2193L35.3697 11.5865C35.6149 11.6683 35.8857 11.6045 36.0688 11.4217L39.6746 7.81589C39.6828 7.94637 39.687 8.07544 39.687 8.20394C39.7061 11.9599 36.677 15.0202 32.9211 15.0396C32.3404 15.0424 31.7617 14.971 31.1993 14.827C30.9662 14.7688 30.7196 14.8369 30.5497 15.0067H30.5534V15.007Z" fill="black"/>
<path d="M35.3849 34.3793L34.4181 35.3461L27.5828 28.5107L28.5492 27.5439L35.3849 34.3793Z" fill="black"/>
</g>
<defs>
<clipPath id="clip0_26_293">
<rect width="41" height="41" fill="white"/>
</clipPath>
</defs>
</svg>
